# xmcd
#
# Track frame offsets:
#	150
#	19355
#	43180
#	69472
#	93092
#	114487
#	136097
#	159175
#	208112
#
# Disc length: 3066 seconds
#
# Revision: 4
# Processed by: cddbd v1.4PL0 Copyright (c) Steve Scherf et al.
# Submitted via: audiograbber 1.81.03
#
DISCID=720bf809
DTITLE=Pat`Temple]p[The`High Lonesome Players - Connecting Lines
DYEAR=1991
DGENRE=
TTITLE0=Twenty-Nine Hands
TTITLE1=I'll Be Back
TTITLE2=Salamander Bones
TTITLE3=Cloud Walking
TTITLE4=Beyond The Watershed
TTITLE5=Feathers And Wind
TTITLE6=Medicine Pipe Bag
TTITLE7=Love Is Calling
TTITLE8=Connecting Lines
EXTD=
EXTT0=
EXTT1=
EXTT2=
EXTT3=
EXTT4=
EXTT5=
EXTT6=
EXTT7=
EXTT8=
PLAYORDER=
